<svg width="607" height="129" viewBox="0 0 607 129" fill="none" xmlns="http://www.w3.org/2000/svg">
<path d="M539.61 57.3567L540.488 55.302L549.528 33.8525H549.526L550.671 31.1405L553.263 24.988L556.487 17.2885C557.028 15.6645 558.131 14.6421 559.424 13.9844C560.059 13.6577 560.728 13.4172 561.371 13.2411C562.287 12.9921 562.898 13.0229 563.814 12.9473C564.452 12.8963 565.087 12.8588 565.722 12.8567L569.022 12.8489L569.03 12.8588C569.04 12.8588 569.052 12.8588 569.064 12.8588C571.563 12.8588 573.555 15.0063 573.499 17.64C573.484 18.2984 573.347 18.9265 573.106 19.4984L573.06 19.6067L572.747 20.3599L572.704 20.4755L572.14 21.8015L571.179 23.8776H602.143L603.038 21.6833L605.934 14.8353C606.511 13.5323 606.838 12.0905 606.838 10.5791C606.838 4.7916 602.116 0.069725 596.328 0.069725C596.232 0.069725 596.138 0.0729294 596.042 0.0749283H541.352C541.35 0.0775986 541.35 0.0775909 541.347 0.080658C533.982 0.203056 527.551 4.94946 524.62 11.6787C524.62 11.6787 524.62 11.6787 524.618 11.6787L500.826 67.6317C500.251 68.9427 499.916 70.3891 499.886 71.9083C499.763 77.7713 504.192 82.5572 509.754 82.5733L509.758 82.5781H525.296H528.114V82.5572H564.396C564.436 82.5681 564.484 82.5703 564.532 82.5681C567.318 82.4192 569.816 81.9828 572.023 81.2599C573.683 80.7177 575.154 80.0063 576.43 79.1348C577.632 78.3167 578.728 77.2921 579.718 76.0615C581.042 74.4145 582.168 72.4531 583.082 70.1807L586.794 60.95L587.718 58.7396H556.666L555.774 60.8344L555.24 62.1577L555.188 62.2729L554.879 63.0291L554.838 63.1344L553.596 66.0973C553.591 66.1 553.588 66.1025 553.584 66.1047C552.684 68.1995 550.614 69.6781 548.203 69.7083C548.178 69.7083 548.158 69.7109 548.132 69.7109L543.78 69.7233L542.199 69.7187C542.026 69.7187 541.832 69.7135 541.631 69.7083C541.62 69.7083 541.611 69.7083 541.602 69.7083C541.596 69.7057 541.596 69.7083 541.59 69.7083C541.586 69.7083 541.583 69.7083 541.58 69.7083C541.578 69.7057 541.574 69.7083 541.571 69.7083C541.566 69.7057 541.563 69.7083 541.559 69.7083C541.555 69.7057 541.554 69.7083 541.548 69.7083C538.962 69.6531 536.867 67.5291 536.867 64.9276C536.867 64.2167 537.026 63.5385 537.307 62.9307L539.61 57.3567ZM331.578 0.170799C337.414 0.170799 342.18 4.89893 342.24 10.7224C342.243 10.7224 342.243 10.7224 342.243 10.7224V10.8328V10.8353C342.243 10.84 342.243 10.8432 342.243 10.8448L342.092 36.8427C342.087 36.8505 342.083 36.8557 342.076 36.8624V38.3197C342.087 38.3072 342.099 38.2943 342.11 38.2823C350.45 27.7729 359.075 17.4572 367.552 7.05626C367.558 7.06146 367.563 7.06147 367.567 7.06293C371.111 2.8552 376.416 0.170799 382.331 0.170799C382.378 0.170799 382.428 0.170799 382.479 0.173332H414.168L379.535 82.6411L346.811 82.638L369.718 26.1505L325.726 82.6411H304.13L305.88 26.09L283.268 82.6359H267.147L301.743 0.173332H317.866L317.863 0.178139H331.174C331.307 0.17334 331.442 0.170799 331.578 0.170799ZM263.49 68.726H231.702C230.315 68.7239 229.067 68.1213 228.171 67.1416C227.286 66.1733 226.752 64.8369 226.782 63.3531L226.862 62.7807L227.136 61.5896L227.284 61.1208L231.222 51.9093L233.434 46.6667H272.723L278.09 33.8448L238.81 33.8525L241.735 26.9161L241.738 26.9187L245.771 17.2885C246.314 15.6645 247.418 14.6421 248.708 13.9844C249.723 13.4645 250.826 13.2083 251.772 13.0427L252.008 13.002H252.187H268.062H286.812L292.224 0.0749283H269.978H230.634C230.634 0.0775986 230.634 0.0775909 230.634 0.080658C223.264 0.203056 216.835 4.94946 213.906 11.6787C213.902 11.6787 213.902 11.6787 213.902 11.6787L190.11 67.6317C189.535 68.9427 189.198 70.3891 189.168 71.9083C189.047 77.7713 193.476 82.5572 199.039 82.5733L199.042 82.5781H242.556H257.006H257.688L263.49 68.726ZM126.041 82.6328H160.887L190.268 12.8844L209.604 12.8667L214.962 0.117737L141.547 0.138L136.172 12.8995L155.462 12.9145L126.041 82.6328ZM76.5182 27.6448L76.5135 27.6468L76.7223 27.1577L76.7499 27.0927L77.651 24.9129L79.8609 19.6599C81.5609 15.6265 85.3051 12.8588 89.9562 12.8317L97.6573 12.8339C99.8546 13.1557 101.521 15.1567 101.472 17.5703C101.459 18.2281 101.319 18.8563 101.078 19.4281L101.033 19.5364L100.719 20.2896L100.676 20.4052L100.113 21.7291L99.1515 23.8083H130.116L131.01 21.6129L133.903 14.762C134.486 13.462 134.81 12.0203 134.81 10.5088C134.81 4.71813 130.088 -7.62939e-06 124.3 -7.62939e-06C124.205 -7.62939e-06 124.109 0 124.014 0.00253296H93.0193V0.0249329H67.7723L64.8619 0.0546646C64.8677 0.0629349 64.8677 0.069725 64.8677 0.080658C57.4494 0.165062 50.9682 4.9416 48.0327 11.7192C48.0327 11.7192 48.0302 11.7192 48.0275 11.7192L47.9729 11.8547C47.9625 11.8771 47.9551 11.902 47.9447 11.9249L41.7671 26.8011L41.1026 28.4181L40.0802 30.876C39.4375 32.3427 39.0775 33.9629 39.0775 35.6624C39.0775 42.0787 44.1682 47.3443 50.5141 47.6359C50.501 47.6411 50.4879 47.6511 50.4761 47.6557L50.4781 47.6661H50.8677L57.6933 47.6708L77.2146 47.6629C77.2469 47.6629 77.2775 47.6609 77.3099 47.6609C80.213 47.6609 82.5833 50.0312 82.5833 52.9339C82.5833 53.7276 82.4051 54.4787 82.0885 55.1541L81.0661 57.5421L78.7209 63.0011C77.0213 67.0344 73.2766 69.8011 68.6266 69.8287L60.925 69.8271C58.725 69.5052 57.0603 67.5015 57.1078 65.0905C57.1229 64.4328 57.2635 63.8047 57.5042 63.2328L57.5499 63.1244L57.8641 62.3713L57.9067 62.2552L58.4661 60.9296L59.4307 58.8525H28.4661L27.5718 61.0473L24.6766 67.8979C24.0974 69.1989 23.7723 70.64 23.7723 72.1515C23.7723 77.94 28.4937 82.6604 34.2818 82.6604C34.377 82.6604 34.4723 82.6604 34.5655 82.6557H65.563V82.6359H90.8094L93.7171 82.6052C93.7151 82.5984 93.7151 82.588 93.7151 82.5781C101.133 82.4953 107.614 77.7167 110.549 70.9437L110.552 70.9416L110.607 70.8036C110.617 70.7801 110.627 70.7609 110.637 70.7359L116.812 54.7848L117.631 52.7911C118.329 51.2192 118.718 49.4864 118.718 47.6609C118.718 40.6703 113.016 34.9672 106.024 34.9672C105.962 34.9672 105.902 34.9692 105.839 34.9692H88.2255V34.9672H87.4141H81.3322L81.3375 34.962C78.4526 34.9396 76.1042 32.5787 76.1042 29.6891C76.1042 28.9661 76.2526 28.2724 76.5182 27.6448ZM501.832 0.102531C507.62 0.102531 512.342 4.82386 512.342 10.612C512.342 11.8547 512.126 13.0505 511.726 14.1572L511.728 14.1599C511.572 14.5896 511.399 15.0213 511.214 15.4536L482.564 82.5953H448.98L460.652 54.9177L462.247 51.1937L458.202 51.214L438.547 51.2817L436.799 51.2896L436.114 52.914L423.491 82.6604L391.21 82.6031L421.13 11.6869L421.172 11.5812C421.178 11.5833 421.183 11.5864 421.186 11.5864C424.12 4.97706 430.662 0.301453 438.283 0.092659C438.283 0.092659 438.283 0.092659 438.283 0.0905228H438.316C438.482 0.0879898 438.644 0.0853348 438.811 0.0853348C438.971 0.0853348 439.132 0.0879898 439.292 0.0905228H465.23H500.999L501.766 0.0999985L501.77 0.105728C501.792 0.105728 501.812 0.102531 501.832 0.102531ZM442.427 38.4047H467.58L476.316 18.1577C476.56 17.6453 476.699 17.0697 476.699 16.4677C476.699 14.3005 474.94 12.5348 472.78 12.5151H472.743H459.699H459.336L459.326 12.5229C455.512 12.6681 452.258 15.0364 450.814 18.3615L450.811 18.3635L442.427 38.4047Z" fill="white"/>
<path fill-rule="evenodd" clip-rule="evenodd" d="M26.7209 94.4755H573.002L563.919 116.091L563.912 116.098C561.05 123.006 554.279 127.916 546.382 128.038L546.376 128.044H546.078H138.028H0L9.0302 106.551C11.8724 99.5432 18.7256 94.5629 26.713 94.4801L26.7209 94.4755Z" fill="#ED1C24"/>
<path fill-rule="evenodd" clip-rule="evenodd" d="M389.646 106.304C390.064 106.236 390.783 106.169 391.77 106.169C395.727 106.169 397.528 107.73 396.147 111.007C394.61 114.648 391.156 116.369 386.999 116.346C386.462 116.346 385.8 116.346 385.439 116.279L389.646 106.304ZM355.112 112.388L357.707 109.154C358.376 108.272 359.195 107.12 359.846 106.213H359.934C359.863 107.097 359.735 108.251 359.686 109.154L359.58 112.388H355.112ZM394.766 116.419C394.766 116.419 394.768 116.419 394.771 116.416L394.766 116.419ZM379.764 119.535L379.739 119.533L378.767 119.428L379.146 118.528L385.451 103.582L385.615 103.198L386.026 103.145C386.823 103.042 387.654 102.967 388.488 102.914C388.628 102.904 388.794 102.894 389.01 102.881C390.064 102.827 391.196 102.796 392.35 102.796H392.407C394.383 102.796 395.975 102.919 397.276 103.19C398.624 103.467 399.662 103.906 400.471 104.523V104.521C401.836 105.522 402.54 106.962 402.324 108.872C402.286 109.224 402.214 109.594 402.106 109.983C401.999 110.372 401.862 110.766 401.696 111.16L401.691 111.175H401.687C400.747 113.406 399.246 115.136 397.515 116.419C397.171 116.675 396.827 116.908 396.488 117.117L396.486 117.115C396.119 117.341 395.764 117.541 395.423 117.715L395.419 117.717L395.414 117.722H395.411C394.232 118.302 392.907 118.759 391.466 119.091H391.463C391.167 119.156 390.883 119.216 390.615 119.267H390.612C388.852 119.603 386.935 119.768 384.922 119.768H384.904C383.176 119.768 381.835 119.71 380.828 119.635C380.807 119.633 380.666 119.62 380.262 119.582C380.032 119.562 379.859 119.548 379.764 119.535ZM358.364 118.865L358.438 115.693H353.716L350.879 119.324L350.658 119.605H350.306H345.57H344.026L345.01 118.415L357.616 103.172L357.831 102.909H358.174H364.14H364.872L364.866 103.642L364.732 118.885L364.728 119.605H364.007H359.092H358.347L358.364 118.865Z" fill="white"/>
<path fill-rule="evenodd" clip-rule="evenodd" d="M151.843 106.26C152.203 106.192 152.851 106.147 153.78 106.147C156.087 106.147 156.995 106.983 156.403 108.386C155.756 109.923 153.866 110.85 151.438 110.85C150.776 110.85 150.307 110.827 149.948 110.759L151.843 106.26ZM160.314 107.98V107.977C160.316 107.977 160.316 107.975 160.316 107.972C160.316 107.97 160.316 107.97 160.316 107.97L160.314 107.98ZM161.65 108.545L161.647 108.55C161.647 108.55 161.65 108.547 161.65 108.545ZM146.523 119.607H140.903L141.33 118.597L147.67 103.558L147.836 103.169L148.25 103.118C149.019 103.026 149.92 102.942 150.967 102.887C152.01 102.832 153.227 102.797 154.646 102.797C156.106 102.797 157.33 102.905 158.324 103.121C159.37 103.35 160.18 103.706 160.768 104.19C160.771 104.193 160.775 104.196 160.778 104.198C160.783 104.203 160.788 104.206 160.792 104.211C161.678 104.901 162.124 105.919 162.014 107.133C161.994 107.367 161.954 107.6 161.896 107.824L161.892 107.829C161.83 108.066 161.75 108.301 161.652 108.537L161.647 108.55C161.647 108.555 161.647 108.552 161.647 108.55L161.644 108.552C161.14 109.753 160.334 110.812 159.291 111.651C159.09 111.814 158.876 111.97 158.659 112.116C158.44 112.259 158.211 112.397 157.972 112.525H157.971L157.966 112.528H157.968C157.076 113.009 156.083 113.386 155.023 113.66L155.02 113.662C154.83 113.71 154.623 113.76 154.403 113.808C153.124 114.086 151.762 114.223 150.364 114.224H150.35C150.026 114.224 149.73 114.217 149.471 114.205C149.407 114.199 149.344 114.198 149.284 114.193L147.19 119.159L147.002 119.607H146.523Z" fill="white"/>
<path fill-rule="evenodd" clip-rule="evenodd" d="M87.6271 106.215C87.986 106.146 88.6344 106.101 89.7443 106.101C91.8402 106.101 92.7975 106.822 92.2199 108.193C91.6595 109.519 89.9527 110.375 87.6719 110.375H85.874L87.6271 106.215ZM87.5844 116.912C87.5844 116.912 87.5844 116.912 87.5844 116.909V116.912ZM86.1729 113.592H86.1656C86.1683 113.592 86.1683 113.592 86.1729 113.592ZM82.2885 119.606H82.7652L82.9563 119.159L85.3016 113.592H86.1683C86.9167 113.6 87.3938 113.677 87.6074 113.886C87.798 114.082 87.8407 114.498 87.75 115.222L87.7475 115.232C87.7376 115.304 87.7355 115.317 87.7125 115.526C87.6896 115.737 87.6647 115.983 87.6371 116.256C87.6172 116.452 87.5995 116.67 87.5844 116.912C87.5141 117.961 87.5418 118.707 87.6423 119.068L87.788 119.606H88.3423H93.0214H93.9371L93.7267 118.705C93.7235 118.702 93.7267 118.705 93.7267 118.71L93.7235 118.697C93.6615 118.371 93.7443 117.341 93.8371 116.204C93.8776 115.699 93.9194 115.169 93.9574 114.586C94.0047 113.762 93.9178 113.045 93.6235 112.442H93.6214C93.5282 112.248 93.4126 112.07 93.2798 111.907C93.4355 111.844 93.5954 111.777 93.7568 111.701H93.7595C95.3511 110.968 96.8855 109.775 97.5485 108.225H97.5511C97.5661 108.188 97.573 108.176 97.5787 108.161C97.6667 107.942 97.7423 107.731 97.797 107.528H97.7948C97.8552 107.309 97.8969 107.096 97.9229 106.895C98.0511 105.773 97.6636 104.869 96.8027 104.188L96.8052 104.185C96.1745 103.662 95.3109 103.309 94.1933 103.091C93.149 102.885 91.8631 102.796 90.3214 102.796H90.2688C89.0256 102.796 87.8506 102.832 86.8058 102.892C86.6027 102.902 86.4246 102.912 86.2912 102.923C85.4776 102.975 84.7016 103.053 84.0011 103.143L83.5871 103.198L83.4262 103.582L77.0928 118.597L76.6688 119.606H77.761H82.2885Z" fill="white"/>
<path d="M507.454 118.832L507.447 118.83L506.671 118.44L507.192 117.743L509.315 114.915L509.671 114.443L510.204 114.694C510.588 114.877 511.087 115.06 511.668 115.208C511.788 115.241 511.908 115.269 512.022 115.294C512.764 115.46 513.624 115.575 514.547 115.575H514.56C515.89 115.575 516.866 115.299 517.42 114.837C517.519 114.756 517.599 114.676 517.656 114.598C517.716 114.518 517.767 114.435 517.802 114.35L517.806 114.342C517.86 114.214 517.835 114.108 517.72 114.01C517.402 113.742 516.76 113.486 515.78 113.197H515.771C514.162 112.707 512.898 112.062 512.14 111.211C511.287 110.251 511.06 109.089 511.655 107.676C512.388 105.937 514.136 104.466 516.514 103.577C516.974 103.406 517.448 103.258 517.934 103.138C519.14 102.832 520.472 102.661 521.883 102.661H521.894C523.094 102.661 524.09 102.748 524.919 102.894V102.896C525.766 103.042 526.448 103.253 527.006 103.489L527.887 103.861L527.296 104.607L525.115 107.366L524.763 107.808L524.248 107.577C523.955 107.444 523.515 107.281 522.926 107.15C522.33 107.017 521.574 106.92 520.652 106.92C519.411 106.92 518.526 107.21 518.043 107.602C517.971 107.659 517.908 107.726 517.858 107.791C517.815 107.841 517.783 107.894 517.763 107.939L517.759 107.946C517.72 108.047 517.763 108.134 517.9 108.228C518.29 108.499 519.05 108.775 520.146 109.139C520.148 109.139 520.151 109.142 520.152 109.142C521.874 109.686 523.046 110.372 523.682 111.246C524.387 112.216 524.447 113.343 523.882 114.681C523.128 116.466 521.352 118.074 518.662 119.005C518.152 119.181 517.607 119.334 517.03 119.46C515.854 119.714 514.547 119.856 513.111 119.859H513.095C511.372 119.859 509.759 119.598 508.616 119.267C508.383 119.196 508.17 119.129 507.982 119.058C507.775 118.98 507.599 118.902 507.454 118.832Z" fill="white"/>
<path d="M488.747 108.902H496.183L495.755 109.909L494.575 112.714L494.384 113.161H493.907H486.95L486.038 115.323H493.25H494.342L493.918 116.332L492.724 119.16L492.535 119.605H492.056H479.196H478.103L478.528 118.597L484.958 103.355L485.146 102.908H485.626H498.066H499.158L498.734 103.918L497.54 106.745L497.352 107.19H496.872H489.467L488.747 108.902Z" fill="white"/>
<path d="M296.4 108.902H303.836L303.411 109.909L302.226 112.714L302.038 113.161H301.562H294.606L293.694 115.323H300.903H301.995L301.571 116.332L300.378 119.16L300.19 119.605H299.712H286.851H285.758L286.183 118.597L292.611 103.355L292.799 102.908H293.279H305.72H306.811L306.387 103.918L305.195 106.745L305.008 107.19H304.527H297.124L296.4 108.902Z" fill="white"/>
<path d="M206.268 118.831L206.263 118.829L205.484 118.44L206.007 117.744L208.128 114.917L208.486 114.442L209.018 114.695C209.399 114.876 209.902 115.059 210.482 115.208C210.602 115.241 210.72 115.27 210.836 115.295C211.579 115.461 212.438 115.574 213.359 115.574H213.372C214.7 115.574 215.68 115.298 216.235 114.836H216.236C216.33 114.758 216.407 114.68 216.471 114.598C216.528 114.519 216.582 114.437 216.616 114.348L216.619 114.344C216.674 114.216 216.65 114.108 216.534 114.01C216.215 113.742 215.574 113.485 214.592 113.196H214.584C212.975 112.709 211.71 112.063 210.954 111.212C210.099 110.251 209.874 109.088 210.47 107.674C211.202 105.936 212.95 104.465 215.328 103.579C215.787 103.405 216.263 103.257 216.747 103.137C217.955 102.833 219.286 102.662 220.695 102.66H220.707C221.904 102.66 222.902 102.751 223.732 102.895C224.579 103.044 225.262 103.252 225.819 103.489L226.702 103.86L226.111 104.608L223.928 107.368L223.578 107.81L223.063 107.577C222.766 107.446 222.33 107.282 221.739 107.149C221.144 107.019 220.388 106.919 219.463 106.919C218.226 106.919 217.34 107.21 216.858 107.601C216.784 107.662 216.722 107.724 216.67 107.79C216.63 107.843 216.596 107.892 216.576 107.938L216.574 107.946H216.571C216.531 108.048 216.576 108.134 216.715 108.227C217.106 108.498 217.864 108.777 218.956 109.138C218.962 109.141 218.963 109.141 218.967 109.143C220.687 109.685 221.856 110.371 222.495 111.248C223.2 112.215 223.26 113.342 222.696 114.683C221.942 116.466 220.167 118.073 217.472 119.005C216.966 119.18 216.42 119.333 215.84 119.458C214.671 119.715 213.359 119.858 211.926 119.858H211.908C210.186 119.858 208.571 119.597 207.428 119.266C207.196 119.198 206.983 119.128 206.795 119.057C206.599 118.984 206.42 118.906 206.268 118.831Z" fill="white"/>
<path d="M110.643 111.859L114.23 103.354L114.418 102.91H120.548L120.121 103.916L116.429 112.67C116.133 113.373 115.99 113.961 115.99 114.428C115.99 114.709 116.043 114.933 116.146 115.096C116.244 115.254 116.402 115.375 116.61 115.462C116.891 115.581 117.27 115.641 117.743 115.641C119.24 115.641 120.49 115.076 121.442 113.883C121.64 113.634 121.823 113.369 121.984 113.084C122.16 112.783 122.323 112.459 122.468 112.112V112.11L122.471 112.103L126.159 103.354L126.348 102.91H126.828H131.386H132.478L132.053 103.916L128.447 112.466C127.388 114.978 125.758 116.834 123.684 118.061C123.285 118.295 122.865 118.511 122.426 118.704C120.658 119.478 118.64 119.857 116.434 119.857H116.427C114.807 119.857 113.456 119.644 112.407 119.202C111.57 118.85 110.925 118.355 110.483 117.713V117.71C110.036 117.06 109.805 116.273 109.805 115.352C109.805 114.363 110.079 113.2 110.643 111.859Z" fill="white"/>
<path fill-rule="evenodd" clip-rule="evenodd" d="M325.778 106.215C326.138 106.146 326.786 106.101 327.895 106.101C329.992 106.101 330.95 106.822 330.371 108.193C329.811 109.519 328.102 110.375 325.824 110.375H324.023L325.778 106.215ZM325.734 116.912C325.734 116.912 325.734 116.912 325.734 116.909V116.912ZM324.322 113.592H324.314C324.318 113.592 324.319 113.592 324.322 113.592ZM320.438 119.606H320.916L321.106 119.159L323.452 113.592H324.319C325.068 113.6 325.546 113.677 325.756 113.886C325.95 114.082 325.992 114.498 325.899 115.222L325.896 115.232C325.888 115.304 325.887 115.317 325.863 115.526C325.839 115.737 325.814 115.983 325.788 116.256C325.768 116.452 325.748 116.67 325.734 116.912C325.666 117.961 325.692 118.707 325.791 119.068L325.94 119.606H326.495H331.17H332.087L331.876 118.705C331.876 118.702 331.876 118.705 331.876 118.71L331.874 118.697C331.811 118.371 331.896 117.341 331.986 116.204C332.028 115.699 332.072 115.169 332.107 114.586C332.154 113.762 332.067 113.045 331.775 112.442H331.774C331.678 112.248 331.564 112.07 331.428 111.907C331.587 111.844 331.748 111.777 331.908 111.701H331.911C333.503 110.968 335.034 109.775 335.699 108.225C335.718 108.188 335.723 108.176 335.728 108.161C335.818 107.942 335.894 107.731 335.946 107.528C336.007 107.309 336.05 107.096 336.071 106.895C336.202 105.773 335.814 104.869 334.954 104.188L334.956 104.185C334.327 103.662 333.463 103.309 332.344 103.091C331.298 102.885 330.015 102.796 328.471 102.796H328.42C327.175 102.796 326.002 102.832 324.958 102.892C324.752 102.902 324.575 102.912 324.442 102.923C323.63 102.975 322.854 103.053 322.15 103.143L321.738 103.198L321.578 103.582L315.244 118.597L314.818 119.606H315.91H320.438Z" fill="white"/>
<path fill-rule="evenodd" clip-rule="evenodd" d="M458.175 106.215C458.534 106.146 459.183 106.101 460.292 106.101C462.39 106.101 463.346 106.822 462.766 108.193C462.206 109.519 460.498 110.375 458.218 110.375H456.42L458.175 106.215ZM458.13 116.912C458.13 116.912 458.13 116.912 458.13 116.909V116.912ZM456.719 113.592H456.711C456.714 113.592 456.716 113.592 456.719 113.592ZM452.836 119.606H453.314L453.502 119.159L455.852 113.592H456.716C457.464 113.6 457.942 113.677 458.152 113.886C458.346 114.082 458.388 114.498 458.298 115.222L458.294 115.232C458.286 115.304 458.283 115.317 458.26 115.526C458.238 115.737 458.21 115.983 458.183 116.256C458.166 116.452 458.147 116.67 458.13 116.912C458.062 117.961 458.09 118.707 458.187 119.068L458.336 119.606H458.89H463.566H464.483L464.271 118.705C464.271 118.702 464.271 118.705 464.271 118.71L464.27 118.697C464.21 118.371 464.292 117.341 464.386 116.204C464.426 115.699 464.468 115.169 464.503 114.586C464.554 113.762 464.463 113.045 464.17 112.442C464.074 112.248 463.958 112.07 463.826 111.907C463.983 111.844 464.144 111.777 464.304 111.701H464.307C465.899 110.968 467.431 109.775 468.096 108.225C468.114 108.188 468.119 108.176 468.124 108.161C468.215 107.942 468.29 107.731 468.343 107.528C468.403 107.309 468.446 107.096 468.471 106.895C468.599 105.773 468.212 104.869 467.351 104.188V104.185C466.723 103.662 465.859 103.309 464.742 103.091C463.696 102.885 462.411 102.796 460.87 102.796H460.815C459.571 102.796 458.399 102.832 457.354 102.892C457.148 102.902 456.97 102.912 456.839 102.923C456.026 102.975 455.25 103.053 454.546 103.143L454.135 103.198L453.971 103.582L447.64 118.597L447.214 119.606H448.308H452.836Z" fill="white"/>
<path d="M65.6052 110.089L65.4521 110.453L62.0745 118.458L61.9313 118.803L61.5699 118.885C60.6776 119.092 59.3704 119.342 57.9287 119.523C57.6975 119.55 57.4115 119.583 57.0652 119.618C56.1527 119.709 55.2167 119.767 54.3199 119.767H54.3C52.3917 119.767 50.812 119.583 49.5287 119.22C48.1876 118.843 47.1631 118.265 46.4251 117.507L46.4204 117.502C45.3527 116.382 44.9333 114.887 45.1849 113.19C45.2303 112.874 45.3027 112.545 45.3953 112.216C45.4885 111.892 45.6063 111.556 45.7495 111.219L45.762 111.184L45.7677 111.176C46.9303 108.459 49.1323 106.335 51.9199 104.901C52.4516 104.624 53.0147 104.373 53.5917 104.147C55.9423 103.234 58.5985 102.751 61.3313 102.751H61.3412C63.2672 102.751 64.8043 102.957 65.8511 103.198C66.0797 103.248 66.2709 103.298 66.424 103.341C66.5891 103.389 66.7475 103.444 66.8937 103.495L66.8985 103.497L66.9057 103.5L67.8193 103.844L67.2271 104.62L65.0855 107.427L64.7485 107.869L64.2344 107.658C63.81 107.482 63.3152 107.334 62.6699 107.228C62.0089 107.118 61.1833 107.055 60.1104 107.055C57.5469 107.055 55.0989 107.834 53.4615 109.406C53.1527 109.705 52.8683 110.033 52.6172 110.395C52.3667 110.757 52.148 111.143 51.9771 111.556V111.557L51.9745 111.565L51.9724 111.562C51.7235 112.153 51.6057 112.683 51.6057 113.145C51.6057 113.599 51.7261 113.989 51.9547 114.305C52.1959 114.636 52.56 114.907 53.0365 115.106C53.6948 115.382 54.5584 115.528 55.5937 115.528C56.2891 115.528 56.9037 115.485 57.3308 115.425C57.3489 115.423 57.3641 115.42 57.3787 115.417L58.1521 113.592H56.1229H55.0313L55.4573 112.582L56.51 110.089H65.6052Z" fill="white"/>
<path d="M274.666 110.089L274.512 110.453L271.138 118.458L270.992 118.803L270.63 118.885C269.738 119.092 268.432 119.342 266.988 119.523C266.76 119.55 266.474 119.583 266.127 119.618C265.214 119.709 264.276 119.767 263.38 119.767H263.36C261.452 119.767 259.872 119.583 258.59 119.22C257.248 118.843 256.223 118.265 255.486 117.507L255.48 117.502C254.414 116.382 253.994 114.887 254.244 113.19C254.292 112.874 254.363 112.545 254.459 112.216C254.551 111.892 254.667 111.556 254.81 111.219L254.826 111.184L254.827 111.176C255.99 108.459 258.192 106.335 260.979 104.901C261.515 104.624 262.075 104.373 262.655 104.147C265.003 103.234 267.662 102.751 270.394 102.751H270.404C272.328 102.751 273.864 102.957 274.914 103.198C275.14 103.248 275.331 103.298 275.484 103.341C275.65 103.389 275.808 103.444 275.954 103.495L275.956 103.497L275.966 103.5L276.88 103.844L276.29 104.62L274.146 107.427L273.808 107.869L273.295 107.658C272.871 107.482 272.375 107.334 271.732 107.228C271.072 107.118 270.246 107.055 269.171 107.055C266.61 107.055 264.162 107.834 262.522 109.406C262.212 109.705 261.928 110.033 261.678 110.395C261.426 110.757 261.211 111.143 261.038 111.556V111.557L261.035 111.565L261.032 111.562C260.784 112.153 260.666 112.683 260.666 113.147C260.666 113.599 260.788 113.992 261.015 114.305C261.254 114.636 261.62 114.905 262.096 115.106C262.755 115.382 263.619 115.528 264.654 115.528C265.35 115.528 265.964 115.485 266.391 115.425C266.408 115.423 266.424 115.42 266.442 115.417L267.212 113.592H265.186H264.094L264.518 112.582L265.57 110.089H274.666Z" fill="white"/>
<path fill-rule="evenodd" clip-rule="evenodd" d="M182.296 116.392C179.238 116.392 178.354 114.151 179.564 111.281C180.767 108.431 183.508 106.123 186.655 106.123C189.804 106.123 190.52 108.476 189.367 111.211C188.107 114.196 185.416 116.392 182.326 116.392H182.296ZM181 119.856H180.963C179.278 119.856 177.867 119.595 176.738 119.118C175.63 118.648 174.788 117.978 174.223 117.149C173.651 116.308 173.364 115.317 173.364 114.229C173.364 113.257 173.598 112.197 174.063 111.09C175.286 108.192 177.784 105.739 180.927 104.242H180.93C181.54 103.951 182.176 103.695 182.82 103.484C184.423 102.954 186.148 102.661 187.92 102.661H187.931C189.679 102.661 191.126 102.932 192.27 103.413C193.392 103.889 194.228 104.564 194.787 105.385C195.354 106.221 195.631 107.203 195.631 108.272C195.631 109.242 195.396 110.292 194.94 111.379C193.687 114.347 191.408 116.647 188.559 118.098C188.016 118.375 187.442 118.623 186.842 118.844C185.028 119.505 183.05 119.856 181 119.856Z" fill="white"/>
<path fill-rule="evenodd" clip-rule="evenodd" d="M423.535 116.392C420.476 116.392 419.592 114.151 420.803 111.281C422.006 108.431 424.747 106.123 427.894 106.123C431.043 106.123 431.759 108.476 430.606 111.211C429.344 114.196 426.654 116.392 423.564 116.392H423.535ZM422.239 119.856H422.202C420.516 119.856 419.106 119.595 417.975 119.118C416.868 118.648 416.026 117.978 415.462 117.149C414.89 116.308 414.6 115.317 414.6 114.229C414.6 113.257 414.836 112.197 415.3 111.09C416.523 108.192 419.023 105.739 422.166 104.242H422.168C422.779 103.951 423.411 103.695 424.059 103.484C425.662 102.954 427.387 102.661 429.159 102.661H429.167C430.918 102.661 432.364 102.932 433.508 103.413C434.63 103.889 435.467 104.564 436.026 105.385C436.592 106.221 436.868 107.203 436.868 108.272C436.868 109.242 436.635 110.292 436.178 111.379C434.928 114.347 432.647 116.647 429.796 118.098C429.255 118.375 428.68 118.623 428.08 118.844C426.267 119.505 424.286 119.856 422.239 119.856Z" fill="white"/>
</svg>
